<svg xmlns="http://www.w3.org/2000/svg" width="23" height="20" viewBox="0 0 23 20" fill="none"><path d="M19.4679 6.23032C17.1484 6.69116 14.8513 7.23298 12.5644 7.79887C11.9184 5.53831 11.3633 3.19591 9.64699 1.27915C9.12426 0.699386 7.89899 0.872498 7.66063 1.52825C6.79479 3.91388 7.60185 6.45618 8.34872 8.86266C8.26398 8.88519 8.17639 8.90657 8.09165 8.9291C5.4098 9.62402 2.42939 10.112 0.865133 11.9257C0.520443 12.3261 0.953988 12.7591 1.4684 12.8877C4.03502 13.5409 6.7511 12.7048 9.28011 12.06C9.94403 14.3569 10.7604 16.7109 12.516 18.589C13.5046 19.6437 15.8406 19.1475 15.8125 17.8492C15.7569 15.5492 14.6383 13.2754 13.7008 11.0346C16.0761 10.4945 18.4528 9.95232 20.7943 9.34432C23.5079 8.63876 22.2647 5.67465 19.4679 6.23032" fill="url(#paint0_linear_1_479)"></path><defs><linearGradient id="paint0_linear_1_479" x1="0.793381" y1="12.4309" x2="20.7551" y2="3.92805" gradientUnits="userSpaceOnUse"><stop offset="0.03125" stop-color="#7B6BE6"></stop><stop offset="1" stop-color="#6200EE"></stop></linearGradient></defs></svg>